<svg width="306" height="82" viewBox="0 0 306 82" fill="none" xmlns="http://www.w3.org/2000/svg">
<path d="M102.72 40.4148C102.72 37.8705 103.306 35.5881 104.478 33.5676C105.676 31.5472 107.285 29.9757 109.305 28.8532C111.351 27.7058 113.583 27.1321 116.003 27.1321C118.771 27.1321 121.228 27.818 123.374 29.1899C125.544 30.5369 127.115 32.4576 128.088 34.952H122.962C122.288 33.5801 121.353 32.5574 120.156 31.8839C118.958 31.2104 117.574 30.8737 116.003 30.8737C114.281 30.8737 112.747 31.2603 111.4 32.0336C110.053 32.8068 108.993 33.9168 108.22 35.3636C107.472 36.8104 107.098 38.4941 107.098 40.4148C107.098 42.3355 107.472 44.0192 108.22 45.466C108.993 46.9127 110.053 48.0352 111.4 48.8334C112.747 49.6067 114.281 49.9933 116.003 49.9933C117.574 49.9933 118.958 49.6566 120.156 48.9831C121.353 48.3096 122.288 47.2869 122.962 45.915H128.088C127.115 48.4094 125.544 50.3301 123.374 51.677C121.228 53.024 118.771 53.6975 116.003 53.6975C113.558 53.6975 111.326 53.1363 109.305 52.0138C107.285 50.8664 105.676 49.2824 104.478 47.2619C103.306 45.2415 102.72 42.9591 102.72 40.4148ZM137.346 25.7851V53.473H133.081V25.7851H137.346ZM151.889 53.8098C149.943 53.8098 148.185 53.3732 146.613 52.5002C145.042 51.6022 143.807 50.355 142.909 48.7586C142.011 47.1372 141.562 45.2664 141.562 43.1462C141.562 41.0509 142.023 39.1925 142.946 37.5712C143.869 35.9498 145.129 34.7026 146.725 33.8295C148.322 32.9565 150.105 32.52 152.076 32.52C154.046 32.52 155.83 32.9565 157.426 33.8295C159.023 34.7026 160.282 35.9498 161.205 37.5712C162.128 39.1925 162.59 41.0509 162.59 43.1462C162.59 45.2415 162.116 47.0998 161.168 48.7212C160.22 50.3425 158.923 51.6022 157.277 52.5002C155.655 53.3732 153.859 53.8098 151.889 53.8098ZM151.889 50.1056C152.986 50.1056 154.009 49.8437 154.957 49.3198C155.93 48.796 156.715 48.0103 157.314 46.9626C157.913 45.915 158.212 44.6428 158.212 43.1462C158.212 41.6495 157.925 40.3898 157.352 39.3671C156.778 38.3195 156.017 37.5337 155.069 37.0099C154.121 36.4861 153.099 36.2242 152.001 36.2242C150.903 36.2242 149.881 36.4861 148.933 37.0099C148.01 37.5337 147.274 38.3195 146.725 39.3671C146.177 40.3898 145.902 41.6495 145.902 43.1462C145.902 45.3662 146.463 47.0873 147.586 48.3096C148.733 49.5069 150.168 50.1056 151.889 50.1056ZM185.477 32.8567V53.473H181.212V51.041C180.538 51.8891 179.653 52.5626 178.555 53.0614C177.482 53.5354 176.335 53.7724 175.113 53.7724C173.491 53.7724 172.032 53.4356 170.735 52.7621C169.463 52.0886 168.453 51.0909 167.704 49.7688C166.981 48.4468 166.619 46.8504 166.619 44.9796V32.8567H170.847V44.3435C170.847 46.1893 171.309 47.6112 172.232 48.6089C173.155 49.5817 174.414 50.0682 176.011 50.0682C177.607 50.0682 178.867 49.5817 179.79 48.6089C180.738 47.6112 181.212 46.1893 181.212 44.3435V32.8567H185.477ZM189.683 43.0713C189.683 41.001 190.107 39.1676 190.955 37.5712C191.828 35.9747 193.001 34.74 194.472 33.867C195.969 32.969 197.628 32.52 199.449 32.52C200.796 32.52 202.118 32.8193 203.415 33.418C204.737 33.9917 205.785 34.7649 206.558 35.7378V25.7851H210.861V53.473H206.558V50.3675C205.859 51.3652 204.887 52.1884 203.639 52.8369C202.417 53.4855 201.008 53.8098 199.411 53.8098C197.615 53.8098 195.969 53.3608 194.472 52.4628C193.001 51.5399 191.828 50.2677 190.955 48.6463C190.107 47 189.683 45.1417 189.683 43.0713ZM206.558 43.1462C206.558 41.7244 206.259 40.4896 205.66 39.442C205.086 38.3943 204.325 37.5961 203.377 37.0473C202.43 36.4986 201.407 36.2242 200.309 36.2242C199.212 36.2242 198.189 36.4986 197.241 37.0473C196.293 37.5712 195.52 38.3569 194.921 39.4045C194.348 40.4273 194.061 41.6495 194.061 43.0713C194.061 44.4931 194.348 45.7404 194.921 46.8129C195.52 47.8855 196.293 48.7087 197.241 49.2824C198.214 49.8312 199.237 50.1056 200.309 50.1056C201.407 50.1056 202.43 49.8312 203.377 49.2824C204.325 48.7336 205.086 47.9354 205.66 46.8878C206.259 45.8152 206.558 44.568 206.558 43.1462ZM225.031 53.7349C223.285 53.7349 221.714 53.4356 220.317 52.8369C218.92 52.2133 217.823 51.3403 217.024 50.2178C216.226 49.0953 215.827 47.7858 215.827 46.2891H220.392C220.492 47.4116 220.928 48.3345 221.701 49.0579C222.5 49.7813 223.61 50.143 225.031 50.143C226.503 50.143 227.651 49.7938 228.474 49.0953C229.297 48.372 229.709 47.449 229.709 46.3265C229.709 45.4535 229.447 44.7426 228.923 44.1938C228.424 43.645 227.788 43.221 227.015 42.9217C226.266 42.6223 225.219 42.2981 223.872 41.9488C222.175 41.4999 220.791 41.0509 219.718 40.6019C218.671 40.1279 217.773 39.4046 217.024 38.4317C216.276 37.4589 215.902 36.1618 215.902 34.5404C215.902 33.0438 216.276 31.7342 217.024 30.6118C217.773 29.4893 218.82 28.6287 220.167 28.03C221.514 27.4314 223.073 27.1321 224.844 27.1321C227.364 27.1321 229.422 27.7681 231.018 29.0403C232.639 30.2875 233.537 32.0086 233.712 34.2037H228.998C228.923 33.2558 228.474 32.4451 227.651 31.7717C226.827 31.0982 225.742 30.7614 224.395 30.7614C223.173 30.7614 222.175 31.0732 221.402 31.6968C220.629 32.3204 220.242 33.2184 220.242 34.3908C220.242 35.189 220.479 35.85 220.953 36.3738C221.452 36.8727 222.076 37.2718 222.824 37.5712C223.572 37.8705 224.595 38.1948 225.892 38.544C227.613 39.0179 229.01 39.4919 230.083 39.9658C231.18 40.4397 232.103 41.1756 232.851 42.1733C233.625 43.1462 234.011 44.4557 234.011 46.102C234.011 47.4241 233.65 48.6713 232.926 49.8437C232.228 51.016 231.193 51.9639 229.821 52.6873C228.474 53.3857 226.877 53.7349 225.031 53.7349ZM257.603 32.8567L244.956 63.1638H240.541L244.732 53.1363L236.612 32.8567H241.364L247.164 48.5715L253.188 32.8567H257.603ZM271.223 32.52C272.845 32.52 274.292 32.8567 275.564 33.5302C276.861 34.2037 277.871 35.2015 278.594 36.5235C279.318 37.8455 279.68 39.442 279.68 41.3128V53.473H275.452V41.9488C275.452 40.103 274.99 38.6936 274.067 37.7208C273.144 36.7231 271.884 36.2242 270.288 36.2242C268.692 36.2242 267.42 36.7231 266.472 37.7208C265.549 38.6936 265.087 40.103 265.087 41.9488V53.473H260.822V32.8567H265.087V35.2139C265.786 34.3658 266.671 33.7048 267.744 33.2309C268.841 32.7569 270.001 32.52 271.223 32.52ZM283.699 43.1462C283.699 41.0259 284.123 39.1676 284.971 37.5712C285.844 35.9498 287.041 34.7026 288.563 33.8295C290.084 32.9565 291.83 32.52 293.801 32.52C296.295 32.52 298.353 33.1186 299.975 34.316C301.621 35.4883 302.731 37.1721 303.305 39.3671H298.702C298.328 38.3444 297.73 37.5462 296.906 36.9725C296.083 36.3988 295.048 36.1119 293.801 36.1119C292.055 36.1119 290.658 36.7355 289.61 37.9827C288.588 39.205 288.076 40.9261 288.076 43.1462C288.076 45.3662 288.588 47.0998 289.61 48.347C290.658 49.5942 292.055 50.2178 293.801 50.2178C296.27 50.2178 297.904 49.1327 298.702 46.9626H303.305C302.706 49.0579 301.583 50.7292 299.937 51.9764C298.291 53.1986 296.245 53.8098 293.801 53.8098C291.83 53.8098 290.084 53.3732 288.563 52.5002C287.041 51.6022 285.844 50.355 284.971 48.7586C284.123 47.1372 283.699 45.2664 283.699 43.1462Z" fill="white"/>
<rect opacity="0.2" width="74.8323" height="74.8323" rx="37.4161" fill="white"/>
<rect x="32.7393" y="31.1801" width="49.8882" height="49.8882" rx="24.9441" fill="white"/>
</svg>
